<svg width="24" height="24" viewBox="0 0 24 24" fill="none" xmlns="http://www.w3.org/2000/svg">
<path fill-rule="evenodd" clip-rule="evenodd" d="M11.9999 22C7.8669 22 5.7999 22 5.1979 20.7C5.14609 20.588 5.10264 20.4724 5.0679 20.354C4.6579 18.967 6.1199 17.359 9.0419 14.144L10.9999 12H12.9999L14.9579 14.143C17.8799 17.359 19.3409 18.967 18.9319 20.353C18.8973 20.4721 18.8538 20.5884 18.8019 20.701C18.1999 22 16.1329 22 11.9999 22Z" fill="#BED7FE"/>
<path opacity="0.5" d="M5.19764 3.3C5.79964 2 7.86664 2 11.9996 2C16.1326 2 18.1996 2 18.8016 3.3C18.8534 3.41197 18.8969 3.52762 18.9316 3.646C19.3416 5.033 17.8796 6.641 14.9576 9.856L12.9996 12H10.9996L9.04164 9.857C6.11964 6.641 4.65864 5.033 5.06764 3.647C5.1023 3.527 5.14564 3.412 5.19764 3.3Z" fill="#BED7FE"/>
</svg>
