<svg width="24" height="24" viewBox="0 0 24 24" fill="none" xmlns="http://www.w3.org/2000/svg">
<path d="M11.6066 4.3934L8.77817 7.22183L10.1924 8.63604L13.0208 5.80761C14.1875 4.64089 16.0967 4.64089 17.2635 5.80761C18.4302 6.97434 18.4302 8.88353 17.2635 10.0503L14.435 12.8787L15.8492 14.2929L18.6777 11.4645C20.6293 9.51285 20.6293 6.34501 18.6777 4.3934C16.7261 2.44178 13.5582 2.44178 11.6066 4.3934ZM13.0208 14.2929L10.1924 17.1213C9.02566 18.288 7.11647 18.288 5.94975 17.1213C4.78302 15.9546 4.78302 14.0454 5.94975 12.8787L8.77817 10.0503L7.36396 8.63604L4.53553 11.4645C2.58392 13.4161 2.58392 16.5839 4.53553 18.5355C6.48715 20.4871 9.65499 20.4871 11.6066 18.5355L14.435 15.7071L13.0208 14.2929ZM8.07107 13.5858L13.7279 7.92893L15.1421 9.34315L9.48528 15L8.07107 13.5858ZM11.6066 4.3934L8.77817 7.22183L10.1924 8.63604L13.0208 5.80761C14.1875 4.64089 16.0967 4.64089 17.2635 5.80761C18.4302 6.97434 18.4302 8.88353 17.2635 10.0503L14.435 12.8787L15.8492 14.2929L18.6777 11.4645C20.6293 9.51285 20.6293 6.34501 18.6777 4.3934C16.7261 2.44178 13.5582 2.44178 11.6066 4.3934ZM13.0208 14.2929L10.1924 17.1213C9.02566 18.288 7.11647 18.288 5.94975 17.1213C4.78302 15.9546 4.78302 14.0454 5.94975 12.8787L8.77817 10.0503L7.36396 8.63604L4.53553 11.4645C2.58392 13.4161 2.58392 16.5839 4.53553 18.5355C6.48715 20.4871 9.65499 20.4871 11.6066 18.5355L14.435 15.7071L13.0208 14.2929ZM8.07107 13.5858L13.7279 7.92893L15.1421 9.34315L9.48528 15L8.07107 13.5858Z" fill="#BED7FF"/>
</svg>
